# xmcd
#
# Track frame offsets:
#	150
#	24330
#	38804
#	55122
#	72503
#	92705
#	105370
#	118715
#	134303
#	158861
#	177250
#	193674
#
# Disc length: 2780 seconds
#
# Revision: 2
# Processed by: cddbd v1.5.2PL0 Copyright (c) Steve Scherf et al.
# Submitted via: audiograbber 1.83.01
#
DISCID=9c0ada0c
DTITLE=Edwyn Collins - Home Again
DYEAR=2007
DGENRE=Blues
TTITLE0=One Is A Lonely Number
TTITLE1=Home Again
TTITLE2=You'll Never Know (My Love)
TTITLE3=7th Son
TTITLE4=Leviathan
TTITLE5=In Your Heart
TTITLE6=Superstar Talking Blues
TTITLE7=Liberteenage Rag
TTITLE8=A Heavy Sigh
TTITLE9=Written In Stone
TTITLE10=One Track Mind
TTITLE11=Then I Cried
EXTD=
EXTT0=
EXTT1=
EXTT2=
EXTT3=
EXTT4=
EXTT5=
EXTT6=
EXTT7=
EXTT8=
EXTT9=
EXTT10=
EXTT11=
PLAYORDER=
